<?xml version="1.0" encoding="UTF-8"?>
<svg version="1.1" xmlns="http://www.w3.org/2000/svg" width="50" height="50">
<path d="M0 0 C13.86 0 27.72 0 42 0 C42 3.96 42 7.92 42 12 C28.14 12 14.28 12 0 12 C0 8.04 0 4.08 0 0 Z M2 2 C2 4.64 2 7.28 2 10 C14.54 10 27.08 10 40 10 C40 7.36 40 4.72 40 2 C27.46 2 14.92 2 2 2 Z " fill="#000000" transform="translate(4,4)"/>
<path d="M0 0 C0.66 0 1.32 0 2 0 C2 8.25 2 16.5 2 25 C14.54 25 27.08 25 40 25 C40 16.75 40 8.5 40 0 C40.66 0 41.32 0 42 0 C42 8.91 42 17.82 42 27 C28.14 27 14.28 27 0 27 C0 18.09 0 9.18 0 0 Z " fill="#000000" transform="translate(4,19)"/>
<path d="M0 0 C4.95 0 9.9 0 15 0 C15 7.26 15 14.52 15 22 C10.05 22 5.1 22 0 22 C0 14.74 0 7.48 0 0 Z M2 2 C2 7.94 2 13.88 2 20 C5.63 20 9.26 20 13 20 C13 14.06 13 8.12 13 2 C9.37 2 5.74 2 2 2 Z " fill="#000000" transform="translate(9,19)"/>
<path d="M0 0 C4.62 0 9.24 0 14 0 C14 0.66 14 1.32 14 2 C9.38 2 4.76 2 0 2 C0 1.34 0 0.68 0 0 Z " fill="#000000" transform="translate(27,39)"/>
<path d="M0 0 C4.62 0 9.24 0 14 0 C14 0.66 14 1.32 14 2 C9.38 2 4.76 2 0 2 C0 1.34 0 0.68 0 0 Z " fill="#000000" transform="translate(27,34)"/>
<path d="M0 0 C4.62 0 9.24 0 14 0 C14 0.66 14 1.32 14 2 C9.38 2 4.76 2 0 2 C0 1.34 0 0.68 0 0 Z " fill="#000000" transform="translate(27,29)"/>
<path d="M0 0 C4.62 0 9.24 0 14 0 C14 0.66 14 1.32 14 2 C9.38 2 4.76 2 0 2 C0 1.34 0 0.68 0 0 Z " fill="#000000" transform="translate(27,24)"/>
<path d="M0 0 C4.62 0 9.24 0 14 0 C14 0.66 14 1.32 14 2 C9.38 2 4.76 2 0 2 C0 1.34 0 0.68 0 0 Z " fill="#000000" transform="translate(27,19)"/>
<path d="M0 0 C0.66 0 1.32 0 2 0 C2 0.66 2 1.32 2 2 C1.34 2 0.68 2 0 2 C0 1.34 0 0.68 0 0 Z " fill="#000000" transform="translate(17,9)"/>
<path d="M0 0 C0.66 0 1.32 0 2 0 C2 0.66 2 1.32 2 2 C1.34 2 0.68 2 0 2 C0 1.34 0 0.68 0 0 Z " fill="#000000" transform="translate(13,9)"/>
<path d="M0 0 C0.66 0 1.32 0 2 0 C2 0.66 2 1.32 2 2 C1.34 2 0.68 2 0 2 C0 1.34 0 0.68 0 0 Z " fill="#000000" transform="translate(9,9)"/>

<linearGradient id="pain_linear" x1="3.15333" y1="1" x2="26.6886" y2="35.0542" gradientUnits="userSpaceOnUse">
<stop offset="0.259336" stop-color="#FFDB6E"/>
<stop offset="1" stop-color="#FFBC5E"/>
</linearGradient>
<linearGradient id="paint1_linear" x1="2.26667" y1="0.375001" x2="27.8327" y2="36.511" gradientUnits="userSpaceOnUse">
<stop offset="0.259336" stop-color="#FFDB6E"/>
<stop offset="1" stop-color="#FFBC5E"/>
</linearGradient>
<linearGradient id="paint2_linear" x1="15.3714" y1="4.22906" x2="15.5472" y2="6.9288" gradientUnits="userSpaceOnUse">
<stop offset="0.259336" stop-color="#FFDB6E"/>
<stop offset="1" stop-color="#FFBC5E"/>
</linearGradient>
<linearGradient id="paint3_linear" x1="4.02043" y1="4.22931" x2="5.36917" y2="5.71887" gradientUnits="userSpaceOnUse">
<stop offset="0.259336" stop-color="#FFDB6E"/>
<stop offset="1" stop-color="#FFBC5E"/>
</linearGradient>
<linearGradient id="paint4_linear" x1="7.14543" y1="4.22931" x2="8.49417" y2="5.71887" gradientUnits="userSpaceOnUse">
<stop offset="0.259336" stop-color="#FFDB6E"/>
<stop offset="1" stop-color="#FFBC5E"/>
</linearGradient>
<linearGradient id="paint5_linear" x1="10.2704" y1="4.22931" x2="11.6189" y2="5.71884" gradientUnits="userSpaceOnUse">
<stop offset="0.259336" stop-color="#FFDB6E"/>
<stop offset="1" stop-color="#FFBC5E"/>
</linearGradient>
<linearGradient id="paint6_linear" x1="17.2521" y1="13.6301" x2="25.0143" y2="19.281" gradientUnits="userSpaceOnUse">
<stop offset="0.259336" stop-color="#FFDB6E"/>
<stop offset="1" stop-color="#FFBC5E"/>
</linearGradient>
<linearGradient id="paint7_linear" x1="10.1144" y1="12.8915" x2="17.4785" y2="16.3959" gradientUnits="userSpaceOnUse">
<stop offset="0.259336" stop-color="#FFDB6E"/>
<stop offset="1" stop-color="#FFBC5E"/>
</linearGradient>
<linearGradient id="paint8_linear" x1="25.7059" y1="12.8918" x2="33.0696" y2="16.3959" gradientUnits="userSpaceOnUse">
<stop offset="0.259336" stop-color="#FFDB6E"/>
<stop offset="1" stop-color="#FFBC5E"/>
</linearGradient>
<linearGradient id="paint9_linear" x1="5.08133" y1="8.13532" x2="19.9152" y2="35.2721" gradientUnits="userSpaceOnUse">
<stop offset="0.259336" stop-color="#FFDB6E"/>
<stop offset="1" stop-color="#FFBC5E"/>
</linearGradient>


</svg>